<?xml version="1.0" encoding="UTF-8"?>
<svg xmlns="http://www.w3.org/2000/svg" xmlns:xlink="http://www.w3.org/1999/xlink" width="1080" height="1350" viewBox="0 0 1080 1350" role="img" aria-label="Adipoli German scene-of-the-week post">
  <title>Adipoli German scene-of-the-week post</title>
  <style>
  .impact { font-family: 'Archivo', 'Arial Narrow', Arial, sans-serif; font-weight: 800; }
  .serif { font-family: 'Source Serif 4', Georgia, serif; font-weight: 600; }
  .ui { font-family: 'Geist', Arial, sans-serif; }
  .mono { font-family: 'Geist Mono', 'Courier New', monospace; }
  text { text-rendering: geometricPrecision; }
</style>

  <defs><linearGradient id="scene-shade" x1="0" y1="0" x2="0" y2="1"><stop offset="0" stop-color="#0C1811" stop-opacity=".08"/><stop offset="1" stop-color="#0C1811" stop-opacity=".82"/></linearGradient></defs>
  <rect width="1080" height="1350" fill="#F5F0E8"/><g id="EDITABLE-SCENE"><rect x="0" y="0" width="1080" height="470" fill="#0C1811"/><image href="../assets/scenes/hub-chayakkada.jpg" x="0" y="0" width="1080" height="470" preserveAspectRatio="xMidYMid slice"/></g><rect width="1080" height="470" fill="url(#scene-shade)"/>
  <text x="70" y="405" class="mono" font-size="30" font-weight="700" letter-spacing="5" fill="#F1D27A">SZENE DER WOCHE · BEIM BÄCKER</text><g id="triangle-a" transform="translate(945 65) scale(1)" opacity="1">
    <path d="M24 6 L40 40 H33.6 L24 19.4 L14.4 40 H8 Z" fill="#F5F0E8"/>
    <path d="M20.7 32 H27.3 L31 40 H17 Z" fill="#D4A520"/>
  </g>
  <g id="EDITABLE-DIALOGUE">
    <text x="70" y="585" class="serif" font-size="56" fill="#102018">Three lines are enough:</text>
    <rect x="70" y="645" width="420" height="102" rx="28" fill="#102018"/><text x="110" y="710" class="mono" font-size="34" font-weight="500" fill="#F5F0E8">Guten Morgen!</text>
    <rect x="430" y="785" width="575" height="102" rx="28" fill="#F1D27A"/><text x="470" y="850" class="mono" font-size="34" font-weight="500" fill="#102018">Zwei Brötchen, bitte.</text>
    <rect x="70" y="925" width="430" height="102" rx="28" fill="#102018"/><text x="110" y="990" class="mono" font-size="34" font-weight="500" fill="#F5F0E8">Danke, tschüss!</text>
    <text x="70" y="1185" class="ui" font-size="29" fill="#66756A">Module 3 micro-dialogue · say it aloud before you scroll.</text>
  </g>

  <g id="EDITING-GUIDES" style="display:none"><rect x="60" y="60" width="960" height="1230" fill="none" stroke="#B95B33" stroke-width="4" stroke-dasharray="14 12"/><text x="72" y="90" class="mono" font-size="20" fill="#B95B33">FEED SAFE AREA · 60 PX</text></g>
</svg>
